<?xml version="1.0" encoding="iso-8859-1"?>
<!-- Generator: Adobe Illustrator 17.1.0, SVG Export Plug-In . SVG Version: 6.00 Build 0)  -->
<!DOCTYPE svg PUBLIC "-//W3C//DTD SVG 1.1//EN" "http://www.w3.org/Graphics/SVG/1.1/DTD/svg11.dtd">
<svg version="1.1" id="Capa_1" xmlns="http://www.w3.org/2000/svg" xmlns:xlink="http://www.w3.org/1999/xlink" x="0px" y="0px"
	 viewBox="0 0 466 466" style="enable-background:new 0 0 466 466;" xml:space="preserve">
<path d="M295.787,119.778c-0.005-0.025-0.012-0.05-0.018-0.075c-1.756-7.262-3.606-14.438-5.544-21.449
	c-7.577-27.414-15.966-50.533-24.26-66.858C255.232,10.27,244.449,0,233,0s-22.232,10.27-32.965,31.396
	c-8.294,16.325-16.683,39.444-24.26,66.858C161.238,150.845,151.472,212.631,151.472,252c0,66.371,19.019,83.104,39.155,100.82
	c11.93,10.498,24.257,21.353,34.373,44.82v9.027h-19.5c-4.418,0-8,3.582-8,8s3.582,8,8,8H225v8.666h-9.5c-4.418,0-8,3.582-8,8
	s3.582,8,8,8h9.5V458c0,4.418,3.582,8,8,8s8-3.582,8-8v-10.667h9.5c4.418,0,8-3.582,8-8s-3.582-8-8-8H241v-8.666h19.5
	c4.418,0,8-3.582,8-8s-3.582-8-8-8H241v-9.027c10.116-23.467,22.443-34.322,34.373-44.82c20.136-17.716,39.155-34.449,39.155-100.82
	C314.528,217.897,307.196,166.975,295.787,119.778z M233,16c7.191,0,24.258,23.041,41.803,86.517
	c1.577,5.706,3.093,11.523,4.548,17.402c-11.23,16.293-24.552,26.417-38.351,29.256V48c0-4.418-3.582-8-8-8s-8,3.582-8,8v101.175
	c-13.799-2.84-27.122-12.964-38.351-29.257c1.455-5.879,2.971-11.696,4.548-17.401C208.742,39.041,225.809,16,233,16z
	 M201.196,340.809c-18.842-16.578-33.724-29.672-33.724-88.809c0-29.082,5.568-71.001,14.52-112.06
	c12.748,14.45,27.511,23.221,43.008,25.473V365.44C217.113,354.82,208.852,347.544,201.196,340.809z M264.804,340.809
	c-7.656,6.736-15.917,14.011-23.804,24.631V165.413c15.497-2.252,30.26-11.023,43.008-25.473
	c8.953,41.059,14.52,82.979,14.52,112.061C298.528,311.137,283.646,324.23,264.804,340.809z"/>
<g>
</g>
<g>
</g>
<g>
</g>
<g>
</g>
<g>
</g>
<g>
</g>
<g>
</g>
<g>
</g>
<g>
</g>
<g>
</g>
<g>
</g>
<g>
</g>
<g>
</g>
<g>
</g>
<g>
</g>
</svg>
