<?xml version="1.0" encoding="iso-8859-1"?>
<!-- Generator: Adobe Illustrator 17.1.0, SVG Export Plug-In . SVG Version: 6.00 Build 0)  -->
<!DOCTYPE svg PUBLIC "-//W3C//DTD SVG 1.1//EN" "http://www.w3.org/Graphics/SVG/1.1/DTD/svg11.dtd">
<svg version="1.1" id="Capa_1" xmlns="http://www.w3.org/2000/svg" xmlns:xlink="http://www.w3.org/1999/xlink" x="0px" y="0px"
	 viewBox="0 0 466 466" style="enable-background:new 0 0 466 466;" xml:space="preserve">
<path d="M334.383,210.446c0.089-2.807,0.145-5.621,0.145-8.446c0-39.85-8.834-77.987-26.257-113.353
	c-16.588-33.671-40.852-63.685-70.173-86.812c-0.007-0.006-0.015-0.012-0.022-0.018c-0.042-0.033-0.083-0.068-0.125-0.102
	c-0.028-0.022-0.06-0.036-0.088-0.058c-0.656-0.504-1.391-0.906-2.185-1.188c-0.05-0.018-0.098-0.038-0.148-0.054
	c-0.368-0.123-0.747-0.217-1.136-0.285c-0.069-0.012-0.138-0.021-0.207-0.032C233.798,0.04,233.404,0,233,0s-0.798,0.04-1.186,0.098
	c-0.069,0.01-0.138,0.019-0.207,0.032c-0.389,0.068-0.769,0.163-1.136,0.285c-0.05,0.017-0.098,0.036-0.147,0.054
	c-0.794,0.282-1.529,0.685-2.185,1.188c-0.028,0.022-0.06,0.036-0.088,0.058c-0.042,0.033-0.083,0.068-0.125,0.102
	c-0.007,0.006-0.015,0.012-0.022,0.018c-29.321,23.128-53.585,53.141-70.173,86.812C140.306,124.013,131.472,162.15,131.472,202
	c0,2.825,0.056,5.639,0.145,8.446c0,0.185,0.011,0.37,0.023,0.554c1.233,36.594,9.982,71.66,26.089,104.353
	c16.035,32.548,39.256,61.661,67.271,84.458v12.8l-3.137-2.47c-13.658-10.755-26.363-23.038-37.762-36.505
	c-2.855-3.373-7.903-3.792-11.275-0.938c-3.373,2.854-3.792,7.902-0.938,11.275c12.092,14.286,25.576,27.32,40.076,38.739
	L225,432.977V458c0,4.418,3.582,8,8,8s8-3.582,8-8v-25.023l13.036-10.265c14.499-11.418,27.982-24.451,40.074-38.736
	c2.854-3.372,2.435-8.42-0.938-11.275c-3.372-2.854-8.42-2.435-11.275,0.938c-11.398,13.467-24.103,25.748-37.76,36.503l-3.137,2.47
	v-12.8c28.015-22.797,51.236-51.91,67.271-84.458c16.107-32.693,24.856-67.759,26.089-104.352
	C334.373,210.816,334.383,210.631,334.383,210.446z M147.76,213.576l34.26-34.948c3.093-3.155,3.042-8.22-0.113-11.313
	c-3.155-3.093-8.22-3.042-11.313,0.113l-22.847,23.306c0.518-11.396,1.816-22.636,3.872-33.654L225,82.223v29.703l-34.406,35.098
	c-3.093,3.155-3.042,8.22,0.113,11.313s8.22,3.043,11.313-0.113L225,134.783v33.854l-73.898,75.384
	C149.364,234.032,148.241,223.869,147.76,213.576z M241,134.783l77.24,78.793c-0.481,10.293-1.604,20.456-3.343,30.445L241,168.636
	V134.783z M241,111.927V82.223l73.381,74.856c2.056,11.018,3.354,22.257,3.872,33.653L241,111.927z M306.432,126.115L241,59.367
	V25.275C271.432,52.949,293.757,87.626,306.432,126.115z M225,25.275v34.092l-65.432,66.748
	C172.243,87.626,194.568,52.949,225,25.275z M155.135,262.762L225,191.492v187.232C190.63,347.47,166.601,307.283,155.135,262.762z
	 M241,378.725V191.492l69.865,71.269C299.399,307.283,275.37,347.47,241,378.725z"/>
<g>
</g>
<g>
</g>
<g>
</g>
<g>
</g>
<g>
</g>
<g>
</g>
<g>
</g>
<g>
</g>
<g>
</g>
<g>
</g>
<g>
</g>
<g>
</g>
<g>
</g>
<g>
</g>
<g>
</g>
</svg>
