<?xml version="1.0" encoding="iso-8859-1"?>
<!-- Generator: Adobe Illustrator 17.1.0, SVG Export Plug-In . SVG Version: 6.00 Build 0)  -->
<!DOCTYPE svg PUBLIC "-//W3C//DTD SVG 1.1//EN" "http://www.w3.org/Graphics/SVG/1.1/DTD/svg11.dtd">
<svg version="1.1" id="Capa_1" xmlns="http://www.w3.org/2000/svg" xmlns:xlink="http://www.w3.org/1999/xlink" x="0px" y="0px"
	 viewBox="0 0 456.589 456.589" style="enable-background:new 0 0 456.589 456.589;" xml:space="preserve">
<path d="M441.235,15.355c-20.475-20.474-53.785-20.474-74.26,0l-55.353,55.353c-25.557-2.935-51.268,5.942-69.513,24.187
	l-91.752,91.752c-0.027,0.027-0.055,0.054-0.081,0.081l-56.638,56.638c-26.884,26.884-26.343,53.38-25.359,101.481
	c0.193,9.441,0.409,20.036,0.445,31.703l-8.9,8.9c-0.049-28.919-0.18-57.969-0.182-58.325c-0.021-4.406-3.598-7.963-7.999-7.963
	c-0.013,0-0.025,0-0.037,0c-4.419,0.02-7.984,3.618-7.964,8.037c0.002,0.422,0.187,41.204,0.198,74.235l-8.766,8.766
	c-0.049-28.919-0.18-57.969-0.182-58.325c-0.021-4.406-3.598-7.963-7.999-7.963c-0.013,0-0.025,0-0.037,0
	c-4.419,0.021-7.984,3.618-7.964,8.037c0.002,0.422,0.187,41.205,0.198,74.235L2.343,442.932c-3.124,3.124-3.124,8.189,0,11.313
	c1.563,1.563,3.609,2.343,5.657,2.343c2.047,0,4.095-0.781,5.657-2.343l16.747-16.748c33.029,0.012,73.812,0.197,74.234,0.199
	c0.012,0,0.024,0,0.037,0c4.4,0,7.979-3.558,7.999-7.963c0.021-4.418-3.545-8.016-7.964-8.037
	c-0.355-0.001-29.406-0.133-58.323-0.182l8.766-8.766c33.028,0.012,73.812,0.197,74.233,0.199c0.013,0,0.025,0,0.038,0
	c4.4,0,7.979-3.558,7.999-7.963c0.021-4.418-3.545-8.016-7.964-8.037c-0.355-0.001-29.406-0.133-58.324-0.182l8.902-8.902
	c11.668,0.036,22.262,0.252,31.703,0.445c48.099,0.983,74.597,1.525,101.481-25.36l148.472-148.471
	c18.243-18.244,27.122-43.96,24.187-69.511l55.354-55.354C461.707,69.141,461.707,35.829,441.235,15.355z M322.462,82.496
	l55.827-55.827c6.896-6.896,16.063-10.693,25.815-10.693c7.027,0,13.752,1.972,19.541,5.654L322.462,122.813V82.496z
	 M243.218,116.415l10.206-10.206c13.998-13.999,33.421-21.194,53.038-19.906v52.51l-63.244,63.244V116.415z M163.974,195.659
	l63.244-63.244v85.643l-63.244,63.244V195.659z M84.276,344.521c-0.95-46.538-1.385-67.779,20.678-89.84l43.021-43.021v85.643
	L84.575,360.7C84.49,354.98,84.379,349.586,84.276,344.521z M201.908,351.636c-22.063,22.062-43.304,21.627-89.84,20.677
	c-5.065-0.104-10.46-0.214-16.179-0.3l63.397-63.398h85.643L201.908,351.636z M350.38,203.165l-10.206,10.206h-36.679
	c-4.418,0-8,3.582-8,8s3.582,8,8,8h20.679l-63.244,63.244h-85.643l63.245-63.244h36.678c4.418,0,8-3.582,8-8s-3.582-8-8-8h-20.678
	l63.244-63.244h52.51C371.574,169.737,364.378,189.167,350.38,203.165z M429.92,78.301l-55.826,55.826h-40.317L434.959,32.944
	c3.683,5.79,5.654,12.513,5.654,19.541C440.614,62.237,436.817,71.405,429.92,78.301z"/>
<g>
</g>
<g>
</g>
<g>
</g>
<g>
</g>
<g>
</g>
<g>
</g>
<g>
</g>
<g>
</g>
<g>
</g>
<g>
</g>
<g>
</g>
<g>
</g>
<g>
</g>
<g>
</g>
<g>
</g>
</svg>
