<?xml version="1.0" encoding="iso-8859-1"?>
<!-- Generator: Adobe Illustrator 17.1.0, SVG Export Plug-In . SVG Version: 6.00 Build 0)  -->
<!DOCTYPE svg PUBLIC "-//W3C//DTD SVG 1.1//EN" "http://www.w3.org/Graphics/SVG/1.1/DTD/svg11.dtd">
<svg version="1.1" id="Capa_1" xmlns="http://www.w3.org/2000/svg" xmlns:xlink="http://www.w3.org/1999/xlink" x="0px" y="0px"
	 viewBox="0 0 466 466" style="enable-background:new 0 0 466 466;" xml:space="preserve">
<path d="M292.399,322.675c12.526-30.984,21.63-81.441,33.125-149.34c14.085-83.201-34.119-125.133-85.154-169.528l-2.118-1.842
	c-0.026-0.022-0.054-0.041-0.08-0.063c-0.097-0.082-0.197-0.159-0.298-0.236c-0.099-0.076-0.198-0.153-0.3-0.224
	c-0.102-0.071-0.206-0.137-0.311-0.203c-0.107-0.068-0.214-0.135-0.324-0.197c-0.107-0.061-0.216-0.117-0.326-0.173
	c-0.112-0.057-0.225-0.112-0.339-0.163c-0.113-0.051-0.228-0.099-0.344-0.145c-0.116-0.046-0.233-0.088-0.35-0.128
	c-0.118-0.04-0.237-0.079-0.357-0.114c-0.123-0.036-0.248-0.066-0.372-0.096c-0.117-0.028-0.233-0.056-0.351-0.078
	c-0.145-0.027-0.291-0.047-0.437-0.067c-0.101-0.013-0.201-0.031-0.304-0.04c-0.24-0.023-0.48-0.035-0.721-0.036
	C233.024,0.002,233.012,0,233,0s-0.024,0.002-0.036,0.002c-0.241,0.001-0.481,0.014-0.721,0.036c-0.103,0.01-0.203,0.027-0.304,0.04
	c-0.146,0.02-0.292,0.039-0.437,0.067c-0.119,0.022-0.235,0.051-0.351,0.078c-0.125,0.03-0.249,0.06-0.372,0.096
	c-0.121,0.035-0.239,0.073-0.357,0.114c-0.118,0.04-0.234,0.083-0.35,0.128c-0.116,0.046-0.231,0.094-0.344,0.145
	c-0.114,0.051-0.227,0.106-0.339,0.163c-0.11,0.056-0.219,0.112-0.326,0.173c-0.11,0.062-0.217,0.129-0.324,0.197
	c-0.105,0.066-0.21,0.132-0.311,0.203c-0.102,0.071-0.201,0.148-0.3,0.224c-0.1,0.077-0.201,0.154-0.298,0.236
	c-0.026,0.022-0.054,0.041-0.08,0.063l-2.118,1.842c-15.47,13.457-30.675,26.689-43.969,40.911
	c-0.033,0.032-0.069,0.059-0.102,0.092c-0.18,0.18-0.346,0.367-0.505,0.559c-30.226,32.551-50.33,70.369-40.579,127.966
	c11.495,67.899,20.599,118.356,33.125,149.34c11.854,29.319,27.49,43.456,51.399,45.925v10.036
	c-16.719-1.524-30.246-7.974-41.167-19.611c-3.023-3.222-8.086-3.382-11.308-0.359c-3.222,3.023-3.382,8.086-0.359,11.308
	c13.872,14.781,31.623,23.059,52.834,24.703V458c0,4.418,3.582,8,8,8s8-3.582,8-8v-37.244c19.158-1.163,36.424-6.547,51.417-16.057
	c3.731-2.366,4.837-7.31,2.47-11.041c-2.366-3.731-7.31-4.837-11.041-2.471c-12.417,7.876-26.803,12.406-42.846,13.526v-10.037
	c21.212-1.644,38.964-9.921,52.835-24.704c3.023-3.222,2.863-8.284-0.359-11.308c-3.222-3.023-8.285-2.863-11.308,0.359
	c-10.921,11.638-24.449,18.088-41.168,19.612V368.6C264.909,366.131,280.546,351.994,292.399,322.675z M309.748,170.665
	C286.797,306.239,275.891,347.492,241,352.462V25.601C285.653,64.896,321.382,101.946,309.748,170.665z M187.54,62.104L225,99.564
	v65.623l-62.87-62.87C168.033,87.562,176.848,74.463,187.54,62.104z M225,25.601v51.336l-26.578-26.578
	C206.651,41.997,215.629,33.848,225,25.601z M163.973,215.037l12.708,12.708c1.562,1.562,3.609,2.343,5.657,2.343
	s4.095-0.781,5.657-2.343c3.125-3.124,3.125-8.189,0-11.313l-28.855-28.855c-0.943-5.473-1.903-11.096-2.888-16.912
	c-3.261-19.261-2.799-36.032,0.535-51.064L225,187.814v65.623l-17.005-17.005c-3.124-3.124-8.189-3.124-11.313,0
	c-3.125,3.124-3.125,8.189,0,11.313L225,276.064v76.398C194.249,348.082,182.127,315.515,163.973,215.037z"/>
<g>
</g>
<g>
</g>
<g>
</g>
<g>
</g>
<g>
</g>
<g>
</g>
<g>
</g>
<g>
</g>
<g>
</g>
<g>
</g>
<g>
</g>
<g>
</g>
<g>
</g>
<g>
</g>
<g>
</g>
</svg>
