<?xml version="1.0" encoding="iso-8859-1"?>
<!-- Generator: Adobe Illustrator 17.1.0, SVG Export Plug-In . SVG Version: 6.00 Build 0)  -->
<!DOCTYPE svg PUBLIC "-//W3C//DTD SVG 1.1//EN" "http://www.w3.org/Graphics/SVG/1.1/DTD/svg11.dtd">
<svg version="1.1" id="Capa_1" xmlns="http://www.w3.org/2000/svg" xmlns:xlink="http://www.w3.org/1999/xlink" x="0px" y="0px"
	 viewBox="0 0 466 466" style="enable-background:new 0 0 466 466;" xml:space="preserve">
<path d="M309.692,288.31c-17.793,18.87-41.874,34.754-67.06,50.71L241,340.054v-14.659c30.241-19.257,56.462-37.379,72.774-60.594
	c18.579-26.441,22.255-56.612,11.568-94.949C309.411,112.7,295.986,68.951,282.249,41.201C268.144,12.707,252.955,0,233,0
	s-35.144,12.707-49.249,41.201c-13.737,27.75-27.162,71.5-43.094,128.651c-10.687,38.337-7.011,68.508,11.568,94.949
	c16.312,23.215,42.533,41.337,72.774,60.594v14.659l-1.633-1.034c-25.186-15.956-49.267-31.84-67.06-50.71
	c-3.03-3.214-8.094-3.364-11.309-0.332c-3.215,3.031-3.363,8.094-0.332,11.309c19.066,20.221,44.057,36.727,70.138,53.249
	L225,358.995v14.652l-1.633-1.034c-15.714-9.955-28.585-18.396-40.32-27.239c-3.528-2.659-8.546-1.954-11.204,1.575
	c-2.658,3.528-1.953,8.544,1.575,11.203c12.166,9.167,25.344,17.813,41.387,27.977L225,392.587v14.653l-1.633-1.034
	c-5.308-3.363-9.6-6.114-13.506-8.657c-3.703-2.411-8.659-1.363-11.069,2.339c-2.411,3.703-1.363,8.659,2.339,11.069
	c3.964,2.581,8.309,5.366,13.674,8.765L225,426.18V458c0,4.418,3.582,8,8,8s8-3.582,8-8v-31.82l10.195-6.459
	c5.365-3.399,9.71-6.184,13.674-8.765c3.702-2.411,4.75-7.367,2.339-11.069c-2.411-3.702-7.367-4.75-11.069-2.339
	c-3.906,2.543-8.198,5.294-13.506,8.657L241,407.24v-14.652l10.195-6.459c16.043-10.164,29.221-18.811,41.387-27.977
	c3.528-2.659,4.233-7.675,1.575-11.203c-2.661-3.53-7.675-4.234-11.204-1.575c-11.735,8.842-24.606,17.284-40.32,27.239L241,373.647
	v-14.653l10.195-6.459c26.081-16.522,51.071-33.028,70.138-53.249c3.031-3.214,2.883-8.278-0.332-11.309
	C317.784,284.946,312.722,285.096,309.692,288.31z M165.316,255.603c-15.821-22.517-18.673-47.639-9.247-81.455
	c15.688-56.28,28.839-99.22,42.021-125.849C212.18,19.837,223.644,16,233,16s20.82,3.837,34.91,32.299
	c13.182,26.629,26.332,69.568,42.021,125.849c9.426,33.816,6.574,58.938-9.247,81.455c-13.177,18.754-34.589,34.48-59.684,50.777V48
	c0-4.418-3.582-8-8-8s-8,3.582-8,8v258.379C199.905,290.083,178.494,274.357,165.316,255.603z"/>
<g>
</g>
<g>
</g>
<g>
</g>
<g>
</g>
<g>
</g>
<g>
</g>
<g>
</g>
<g>
</g>
<g>
</g>
<g>
</g>
<g>
</g>
<g>
</g>
<g>
</g>
<g>
</g>
<g>
</g>
</svg>
