<?xml version="1.0" encoding="iso-8859-1"?>
<!-- Generator: Adobe Illustrator 17.1.0, SVG Export Plug-In . SVG Version: 6.00 Build 0)  -->
<!DOCTYPE svg PUBLIC "-//W3C//DTD SVG 1.1//EN" "http://www.w3.org/Graphics/SVG/1.1/DTD/svg11.dtd">
<svg version="1.1" id="Capa_1" xmlns="http://www.w3.org/2000/svg" xmlns:xlink="http://www.w3.org/1999/xlink" x="0px" y="0px"
	 viewBox="0 0 466 466" style="enable-background:new 0 0 466 466;" xml:space="preserve">
<path d="M290.473,10.877C274.66,3.863,254.249,0,233,0s-41.66,3.863-57.472,10.877c-17.552,7.786-27.218,18.524-27.218,30.237
	c0,22.999,8.741,40.942,17.194,58.294c8.673,17.804,17.642,36.214,17.642,61.179l-0.126,184.892c0,24.811,18.22,45.44,41.981,49.227
	v10.113c-10.579-1.381-20.499-5.545-29.04-12.258c-3.474-2.729-8.502-2.126-11.233,1.347c-2.73,3.474-2.127,8.503,1.347,11.233
	c11.393,8.954,24.724,14.325,38.927,15.777v10.059c-10.607-0.957-20.804-3.854-30.405-8.659c-3.952-1.978-8.757-0.377-10.734,3.574
	s-0.377,8.757,3.574,10.734c11.844,5.927,24.45,9.407,37.565,10.401V458c0,4.418,3.582,8,8,8c4.418,0,8-3.582,8-8v-10.991
	c13.024-1.019,25.543-4.493,37.312-10.382c3.951-1.977,5.552-6.783,3.574-10.734c-1.978-3.952-6.783-5.553-10.734-3.574
	c-9.524,4.765-19.636,7.653-30.151,8.633v-10.06c14.107-1.49,27.346-6.848,38.672-15.749c3.474-2.73,4.077-7.76,1.347-11.233
	c-2.729-3.473-7.758-4.075-11.233-1.347c-8.472,6.658-18.302,10.806-28.785,12.219V394.66c23.637-3.893,41.729-24.458,41.729-49.176
	l0.126-184.892c0-24.971,8.969-43.381,17.642-61.185c8.453-17.352,17.194-35.295,17.194-58.294
	C317.69,29.401,308.024,18.663,290.473,10.877z M286.112,92.401c-9.026,18.529-19.258,39.531-19.258,68.186l-0.126,184.892
	c0,15.866-10.974,29.212-25.729,32.862V48c0-4.418-3.582-8-8-8c-4.418,0-8,3.582-8,8v330.399
	c-14.881-3.56-25.981-16.964-25.981-32.915l0.126-184.892c0-28.66-10.231-49.662-19.258-68.191
	c-8.011-16.445-15.578-31.979-15.578-51.287C164.31,32.261,190.389,16,233,16s68.69,16.261,68.69,25.114
	C301.69,60.423,294.123,75.956,286.112,92.401z"/>
<g>
</g>
<g>
</g>
<g>
</g>
<g>
</g>
<g>
</g>
<g>
</g>
<g>
</g>
<g>
</g>
<g>
</g>
<g>
</g>
<g>
</g>
<g>
</g>
<g>
</g>
<g>
</g>
<g>
</g>
</svg>
